<svg width="10" height="11" viewBox="0 0 10 11" fill="none" xmlns="http://www.w3.org/2000/svg">
    <path d="M0.125 0.820313C0.125 0.720856 0.164509 0.625474 0.234835 0.555147C0.305161 0.484821 0.400544 0.445313 0.5 0.445312H9.5C9.59946 0.445313 9.69484 0.484821 9.76517 0.555147C9.83549 0.625474 9.875 0.720856 9.875 0.820313V2.32031C9.87498 2.41279 9.84079 2.50201 9.779 2.57081L6.5 6.21431V9.82031C6.49994 9.89899 6.47514 9.97565 6.42911 10.0394C6.38307 10.1032 6.31814 10.151 6.2435 10.1758L3.9935 10.9258C3.93716 10.9446 3.87716 10.9497 3.81845 10.9407C3.75974 10.9318 3.704 10.909 3.65581 10.8743C3.60763 10.8396 3.56837 10.7939 3.54128 10.7411C3.51419 10.6882 3.50005 10.6297 3.5 10.5703V6.21431L0.221 2.57081C0.159206 2.50201 0.125017 2.41279 0.125 2.32031V0.820313Z" fill="#147DB8"/>
</svg>
