<svg width="21" height="20" viewBox="0 0 21 20" fill="none" xmlns="http://www.w3.org/2000/svg">
    <path d="M10.5 18.75C8.17936 18.75 5.95376 17.8281 4.31282 16.1872C2.67187 14.5462 1.75 12.3206 1.75 10C1.75 7.67936 2.67187 5.45376 4.31282 3.81282C5.95376 2.17187 8.17936 1.25 10.5 1.25C12.8206 1.25 15.0462 2.17187 16.6872 3.81282C18.3281 5.45376 19.25 7.67936 19.25 10C19.25 12.3206 18.3281 14.5462 16.6872 16.1872C15.0462 17.8281 12.8206 18.75 10.5 18.75ZM10.5 20C13.1522 20 15.6957 18.9464 17.5711 17.0711C19.4464 15.1957 20.5 12.6522 20.5 10C20.5 7.34784 19.4464 4.8043 17.5711 2.92893C15.6957 1.05357 13.1522 0 10.5 0C7.84784 0 5.3043 1.05357 3.42893 2.92893C1.55357 4.8043 0.5 7.34784 0.5 10C0.5 12.6522 1.55357 15.1957 3.42893 17.0711C5.3043 18.9464 7.84784 20 10.5 20Z" fill="white"/>
    <path d="M10.5 5C10.6658 5 10.8247 5.06585 10.9419 5.18306C11.0592 5.30027 11.125 5.45924 11.125 5.625V9.375H14.875C15.0408 9.375 15.1997 9.44085 15.3169 9.55806C15.4342 9.67527 15.5 9.83424 15.5 10C15.5 10.1658 15.4342 10.3247 15.3169 10.4419C15.1997 10.5592 15.0408 10.625 14.875 10.625H11.125V14.375C11.125 14.5408 11.0592 14.6997 10.9419 14.8169C10.8247 14.9342 10.6658 15 10.5 15C10.3342 15 10.1753 14.9342 10.0581 14.8169C9.94085 14.6997 9.875 14.5408 9.875 14.375V10.625H6.125C5.95924 10.625 5.80027 10.5592 5.68306 10.4419C5.56585 10.3247 5.5 10.1658 5.5 10C5.5 9.83424 5.56585 9.67527 5.68306 9.55806C5.80027 9.44085 5.95924 9.375 6.125 9.375H9.875V5.625C9.875 5.45924 9.94085 5.30027 10.0581 5.18306C10.1753 5.06585 10.3342 5 10.5 5Z" fill="white"/>
</svg>
