<svg width="17" height="19" viewBox="0 0 17 19" fill="none" xmlns="http://www.w3.org/2000/svg">
    <path d="M5.375 6.875C5.54076 6.875 5.69973 6.94085 5.81694 7.05806C5.93415 7.17527 6 7.33424 6 7.5V15C6 15.1658 5.93415 15.3247 5.81694 15.4419C5.69973 15.5592 5.54076 15.625 5.375 15.625C5.20924 15.625 5.05027 15.5592 4.93306 15.4419C4.81585 15.3247 4.75 15.1658 4.75 15V7.5C4.75 7.33424 4.81585 7.17527 4.93306 7.05806C5.05027 6.94085 5.20924 6.875 5.375 6.875ZM8.5 6.875C8.66576 6.875 8.82473 6.94085 8.94194 7.05806C9.05915 7.17527 9.125 7.33424 9.125 7.5V15C9.125 15.1658 9.05915 15.3247 8.94194 15.4419C8.82473 15.5592 8.66576 15.625 8.5 15.625C8.33424 15.625 8.17527 15.5592 8.05806 15.4419C7.94085 15.3247 7.875 15.1658 7.875 15V7.5C7.875 7.33424 7.94085 7.17527 8.05806 7.05806C8.17527 6.94085 8.33424 6.875 8.5 6.875ZM12.25 7.5C12.25 7.33424 12.1842 7.17527 12.0669 7.05806C11.9497 6.94085 11.7908 6.875 11.625 6.875C11.4592 6.875 11.3003 6.94085 11.1831 7.05806C11.0658 7.17527 11 7.33424 11 7.5V15C11 15.1658 11.0658 15.3247 11.1831 15.4419C11.3003 15.5592 11.4592 15.625 11.625 15.625C11.7908 15.625 11.9497 15.5592 12.0669 15.4419C12.1842 15.3247 12.25 15.1658 12.25 15V7.5Z" fill="white"/>
    <path fill-rule="evenodd" clip-rule="evenodd" d="M16.625 3.75C16.625 4.08152 16.4933 4.39946 16.2589 4.63388C16.0245 4.8683 15.7065 5 15.375 5H14.75V16.25C14.75 16.913 14.4866 17.5489 14.0178 18.0178C13.5489 18.4866 12.913 18.75 12.25 18.75H4.75C4.08696 18.75 3.45107 18.4866 2.98223 18.0178C2.51339 17.5489 2.25 16.913 2.25 16.25V5H1.625C1.29348 5 0.975537 4.8683 0.741116 4.63388C0.506696 4.39946 0.375 4.08152 0.375 3.75V2.5C0.375 2.16848 0.506696 1.85054 0.741116 1.61612C0.975537 1.3817 1.29348 1.25 1.625 1.25H6C6 0.918479 6.1317 0.600537 6.36612 0.366117C6.60054 0.131696 6.91848 0 7.25 0H9.75C10.0815 0 10.3995 0.131696 10.6339 0.366117C10.8683 0.600537 11 0.918479 11 1.25H15.375C15.7065 1.25 16.0245 1.3817 16.2589 1.61612C16.4933 1.85054 16.625 2.16848 16.625 2.5V3.75ZM3.6475 5L3.5 5.07375V16.25C3.5 16.5815 3.6317 16.8995 3.86612 17.1339C4.10054 17.3683 4.41848 17.5 4.75 17.5H12.25C12.5815 17.5 12.8995 17.3683 13.1339 17.1339C13.3683 16.8995 13.5 16.5815 13.5 16.25V5.07375L13.3525 5H3.6475ZM1.625 3.75V2.5H15.375V3.75H1.625Z" fill="white"/>
</svg>
