<svg width="15" height="20" viewBox="0 0 15 20" fill="none" xmlns="http://www.w3.org/2000/svg">
    <path d="M4.855 8.35C4.8032 8.28472 4.73887 8.23045 4.66578 8.1904C4.5927 8.15034 4.51235 8.12531 4.42945 8.11677C4.34655 8.10823 4.26278 8.11635 4.18306 8.14066C4.10335 8.16498 4.0293 8.20499 3.96528 8.25834C3.90126 8.31169 3.84855 8.37731 3.81027 8.45133C3.77198 8.52535 3.74888 8.60628 3.74233 8.68937C3.73578 8.77245 3.74591 8.856 3.77213 8.93511C3.79835 9.01421 3.84013 9.08728 3.895 9.15L6.68625 12.5L3.895 15.85C3.79358 15.9778 3.74617 16.1402 3.76289 16.3025C3.77962 16.4648 3.85914 16.6142 3.98449 16.7186C4.10983 16.8231 4.27106 16.8744 4.43371 16.8615C4.59637 16.8487 4.74757 16.7728 4.855 16.65L7.5 13.4763L10.145 16.6513C10.2513 16.7786 10.4037 16.8584 10.5689 16.8733C10.6506 16.8807 10.7331 16.8719 10.8114 16.8474C10.8898 16.8229 10.9626 16.7832 11.0256 16.7306C11.0887 16.678 11.1407 16.6135 11.1788 16.5408C11.2169 16.468 11.2403 16.3885 11.2477 16.3068C11.2551 16.225 11.2463 16.1426 11.2218 16.0642C11.1973 15.9858 11.1576 15.913 11.105 15.85L8.31375 12.5L11.105 9.15C11.2064 9.02218 11.2538 8.85978 11.2371 8.69747C11.2204 8.53517 11.1409 8.38584 11.0155 8.28139C10.8902 8.17693 10.7289 8.12563 10.5663 8.13846C10.4036 8.15128 10.2524 8.2272 10.145 8.35L7.5 11.5237L4.855 8.35Z" fill="white"/>
    <path d="M15 17.5V5.625L9.375 0H2.5C1.83696 0 1.20107 0.263392 0.732233 0.732233C0.263392 1.20107 0 1.83696 0 2.5V17.5C0 18.163 0.263392 18.7989 0.732233 19.2678C1.20107 19.7366 1.83696 20 2.5 20H12.5C13.163 20 13.7989 19.7366 14.2678 19.2678C14.7366 18.7989 15 18.163 15 17.5ZM9.375 3.75C9.375 4.24728 9.57254 4.72419 9.92417 5.07583C10.2758 5.42746 10.7527 5.625 11.25 5.625H13.75V17.5C13.75 17.8315 13.6183 18.1495 13.3839 18.3839C13.1495 18.6183 12.8315 18.75 12.5 18.75H2.5C2.16848 18.75 1.85054 18.6183 1.61612 18.3839C1.3817 18.1495 1.25 17.8315 1.25 17.5V2.5C1.25 2.16848 1.3817 1.85054 1.61612 1.61612C1.85054 1.3817 2.16848 1.25 2.5 1.25H9.375V3.75Z" fill="white"/>
</svg>
