<svg width="21" height="16" viewBox="0 0 21 16" fill="none" xmlns="http://www.w3.org/2000/svg">
    <path d="M0.5 3C0.5 2.33696 0.763392 1.70107 1.23223 1.23223C1.70107 0.763392 2.33696 0.5 3 0.5H18C18.663 0.5 19.2989 0.763392 19.7678 1.23223C20.2366 1.70107 20.5 2.33696 20.5 3V13C20.5 13.663 20.2366 14.2989 19.7678 14.7678C19.2989 15.2366 18.663 15.5 18 15.5H3C2.33696 15.5 1.70107 15.2366 1.23223 14.7678C0.763392 14.2989 0.5 13.663 0.5 13V3ZM3 1.75C2.66848 1.75 2.35054 1.8817 2.11612 2.11612C1.8817 2.35054 1.75 2.66848 1.75 3V3.27125L10.5 8.52125L19.25 3.27125V3C19.25 2.66848 19.1183 2.35054 18.8839 2.11612C18.6495 1.8817 18.3315 1.75 18 1.75H3ZM19.25 4.72875L13.365 8.26L19.25 11.8812V4.72875ZM19.2075 13.3237L12.1575 8.985L10.5 9.97875L8.8425 8.985L1.7925 13.3225C1.86353 13.5885 2.0204 13.8236 2.23874 13.9913C2.45708 14.159 2.72468 14.25 3 14.25H18C18.2752 14.25 18.5426 14.1593 18.761 13.9918C18.9793 13.8243 19.1362 13.5895 19.2075 13.3237ZM1.75 11.8812L7.635 8.26L1.75 4.72875V11.8812Z" fill="white"/>
</svg>
