<svg width="21" height="20" viewBox="0 0 21 20" fill="none" xmlns="http://www.w3.org/2000/svg">
    <path d="M10.5003 5.94285C9.96751 5.94285 9.43989 6.0478 8.94761 6.25171C8.45533 6.45562 8.00804 6.75449 7.63127 7.13127C7.25449 7.50804 6.95562 7.95533 6.75171 8.44761C6.5478 8.93989 6.44285 9.46751 6.44285 10.0003C6.44285 10.5332 6.5478 11.0608 6.75171 11.5531C6.95562 12.0454 7.25449 12.4927 7.63127 12.8694C8.00804 13.2462 8.45533 13.5451 8.94761 13.749C9.43989 13.9529 9.96751 14.0579 10.5003 14.0579C11.5765 14.0579 12.6085 13.6304 13.3694 12.8694C14.1304 12.1085 14.5579 11.0765 14.5579 10.0003C14.5579 8.92423 14.1304 7.89219 13.3694 7.13127C12.6085 6.37034 11.5765 5.94285 10.5003 5.94285ZM7.69285 10.0003C7.69285 9.25576 7.98864 8.54166 8.51515 8.01515C9.04166 7.48864 9.75576 7.19285 10.5003 7.19285C11.2449 7.19285 11.959 7.48864 12.4856 8.01515C13.0121 8.54166 13.3079 9.25576 13.3079 10.0003C13.3079 10.7449 13.0121 11.459 12.4856 11.9856C11.959 12.5121 11.2449 12.8079 10.5003 12.8079C9.75576 12.8079 9.04166 12.5121 8.51515 11.9856C7.98864 11.459 7.69285 10.7449 7.69285 10.0003Z" fill="white"/>
    <path d="M12.7453 1.6791C12.0866 -0.558398 8.9141 -0.558398 8.25535 1.6791L8.13785 2.07785C8.09185 2.23404 8.01147 2.37796 7.90262 2.49905C7.79377 2.62014 7.6592 2.71534 7.50878 2.77767C7.35835 2.83999 7.19589 2.86787 7.03329 2.85925C6.8707 2.85063 6.71209 2.80573 6.5691 2.72785L6.2041 2.52785C4.1541 1.41285 1.91285 3.65535 3.0291 5.7041L3.22785 6.0691C3.30573 6.21209 3.35063 6.3707 3.35925 6.53329C3.36787 6.69589 3.33999 6.85835 3.27767 7.00878C3.21534 7.1592 3.12014 7.29377 2.99905 7.40262C2.87796 7.51147 2.73404 7.59185 2.57785 7.63785L2.1791 7.75535C-0.0583984 8.4141 -0.0583984 11.5866 2.1791 12.2453L2.57785 12.3629C2.73404 12.4089 2.87796 12.4892 2.99905 12.5981C3.12014 12.7069 3.21534 12.8415 3.27767 12.9919C3.33999 13.1423 3.36787 13.3048 3.35925 13.4674C3.35063 13.63 3.30573 13.7886 3.22785 13.9316L3.02785 14.2966C1.91285 16.3466 4.1541 18.5891 6.2041 17.4716L6.5691 17.2729C6.71209 17.195 6.8707 17.1501 7.03329 17.1415C7.19589 17.1328 7.35835 17.1607 7.50878 17.223C7.6592 17.2854 7.79377 17.3806 7.90262 17.5017C8.01147 17.6227 8.09185 17.7667 8.13785 17.9228L8.25535 18.3216C8.9141 20.5591 12.0866 20.5591 12.7453 18.3216L12.8629 17.9228C12.9089 17.7667 12.9892 17.6227 13.0981 17.5017C13.2069 17.3806 13.3415 17.2854 13.4919 17.223C13.6423 17.1607 13.8048 17.1328 13.9674 17.1415C14.13 17.1501 14.2886 17.195 14.4316 17.2729L14.7966 17.4729C16.8466 18.5891 19.0891 16.3454 17.9716 14.2966L17.7729 13.9316C17.695 13.7886 17.6501 13.63 17.6415 13.4674C17.6328 13.3048 17.6607 13.1423 17.723 12.9919C17.7854 12.8415 17.8806 12.7069 18.0017 12.5981C18.1227 12.4892 18.2667 12.4089 18.4228 12.3629L18.8216 12.2453C21.0591 11.5866 21.0591 8.4141 18.8216 7.75535L18.4228 7.63785C18.2667 7.59185 18.1227 7.51147 18.0017 7.40262C17.8806 7.29377 17.7854 7.1592 17.723 7.00878C17.6607 6.85835 17.6328 6.69589 17.6415 6.53329C17.6501 6.3707 17.695 6.21209 17.7729 6.0691L17.9729 5.7041C19.0891 3.6541 16.8454 1.41285 14.7966 2.5291L14.4316 2.72785C14.2886 2.80573 14.13 2.85063 13.9674 2.85925C13.8048 2.86787 13.6423 2.83999 13.4919 2.77767C13.3415 2.71534 13.2069 2.62014 13.0981 2.49905C12.9892 2.37796 12.9089 2.23404 12.8629 2.07785L12.7453 1.6791ZM9.4541 2.03285C9.7616 0.989101 11.2391 0.989101 11.5466 2.03285L11.6641 2.4316C11.7629 2.76671 11.9354 3.07546 12.169 3.33523C12.4026 3.59499 12.6914 3.79918 13.0142 3.93283C13.337 4.06647 13.6856 4.12619 14.0345 4.10759C14.3833 4.08899 14.7236 3.99256 15.0303 3.82535L15.3941 3.62535C16.3491 3.1066 17.3941 4.15035 16.8741 5.1066L16.6754 5.4716C16.5084 5.77838 16.4122 6.11864 16.3938 6.46742C16.3754 6.81621 16.4353 7.16469 16.569 7.48733C16.7028 7.80997 16.907 8.0986 17.1668 8.33207C17.4266 8.56554 17.7353 8.73792 18.0704 8.8366L18.4678 8.9541C19.5116 9.2616 19.5116 10.7391 18.4678 11.0466L18.0691 11.1641C17.734 11.2629 17.4252 11.4354 17.1655 11.669C16.9057 11.9026 16.7015 12.1914 16.5679 12.5142C16.4342 12.837 16.3745 13.1856 16.3931 13.5345C16.4117 13.8833 16.5081 14.2236 16.6754 14.5303L16.8754 14.8941C17.3941 15.8491 16.3504 16.8941 15.3941 16.3741L15.0303 16.1754C14.7235 16.0082 14.3832 15.9118 14.0342 15.8933C13.6853 15.8747 13.3366 15.9346 13.0138 16.0683C12.691 16.2021 12.4023 16.4064 12.1687 16.6663C11.9351 16.9262 11.7627 17.2351 11.6641 17.5704L11.5466 17.9678C11.2391 19.0116 9.7616 19.0116 9.4541 17.9678L9.3366 17.5691C9.23778 17.2342 9.06529 16.9256 8.83176 16.6659C8.59824 16.4063 8.30959 16.2022 7.98696 16.0686C7.66434 15.935 7.3159 15.8752 6.96719 15.8937C6.61847 15.9121 6.2783 16.0084 5.9716 16.1754L5.6066 16.3754C4.6516 16.8941 3.6066 15.8504 4.1266 14.8941L4.32535 14.5303C4.49279 14.2236 4.58942 13.8832 4.60813 13.5341C4.62685 13.1851 4.56719 12.8364 4.43353 12.5134C4.29987 12.1905 4.09559 11.9015 3.8357 11.6678C3.5758 11.4341 3.26688 11.2616 2.9316 11.1629L2.53285 11.0454C1.4891 10.7379 1.4891 9.26035 2.53285 8.95285L2.9316 8.83535C3.26636 8.73649 3.57478 8.56403 3.83428 8.33059C4.09378 8.09715 4.29781 7.80864 4.43142 7.48617C4.56503 7.1637 4.62485 6.81544 4.6065 6.46688C4.58814 6.11831 4.49209 5.77825 4.32535 5.4716L4.12535 5.1066C3.6066 4.1516 4.65035 3.1066 5.6066 3.6266L5.9716 3.82535C6.2783 3.99232 6.61847 4.08857 6.96719 4.10704C7.3159 4.12552 7.66434 4.06575 7.98696 3.93212C8.30959 3.79849 8.59824 3.59439 8.83176 3.33475C9.06529 3.07512 9.23778 2.76653 9.3366 2.4316L9.4541 2.03285Z" fill="white"/>
</svg>
